<?xml version="1.0" encoding="UTF-8"?>
<svg width="30px" height="30px" viewBox="0 0 30 30" version="1.1" xmlns="http://www.w3.org/2000/svg" xmlns:xlink="http://www.w3.org/1999/xlink">
    <!-- Generator: Sketch 52.2 (67145) - http://www.bohemiancoding.com/sketch -->
    <title>Group</title>
    <desc>Created with Sketch.</desc>
    <g id="Page-1" stroke="none" stroke-width="1" fill="none" fill-rule="evenodd">
        <g id="Artboard">
            <g id="Group">
                <circle id="Oval" fill="#000000" cx="15" cy="15" r="15"></circle>
                <g id="nervos-logo-shape-only-dark-bg" transform="translate(6.621924, 7.964206)">
                    <polygon id="Path" fill="#FFFFFF" points="0 0.0134228188 0 2.82774049 0 5.64205817 0 8.45637584 2.81431767 8.45637584 2.81431767 5.64205817 2.81431767 2.82774049 2.81431767 0.0134228188"></polygon>
                    <polygon id="Path" fill="#FFFFFF" points="13.950783 5.64205817 13.950783 8.45637584 13.950783 11.2729306 13.950783 14.0872483 16.7651007 14.0872483 16.7651007 11.2729306 16.7651007 8.45637584 16.7651007 5.64205817"></polygon>
                    <polygon id="Path" fill="#FFFFFF" points="8.32214765 0.0134228188 8.32214765 2.82774049 8.32214765 5.5212528 11.1364653 8.33557047 11.1364653 5.64205817 11.1364653 2.82774049"></polygon>
                    <polygon id="Path" fill="#FFFFFF" points="5.62863535 5.76510067 5.62863535 8.45637584 5.62863535 11.2729306 8.44295302 14.0872483 8.44295302 11.2729306 8.44295302 8.57941834"></polygon>
                    <polygon id="Path" fill="#D8D8D8" points="8.32214765 0.0134228188 11.1364653 0.0134228188 16.7651007 5.64205817 13.950783 5.64205817"></polygon>
                    <polygon id="Path" fill="#D8D8D8" points="0 8.45637584 2.81431767 8.45637584 8.44295302 14.0872483 5.62863535 14.0872483"></polygon>
                    <polygon id="Path" fill="#3CC68A" points="11.1364653 2.82774049 11.1364653 5.64205817 11.1364653 8.29753915 2.81431767 0.0134228188 2.81431767 2.82774049 2.81431767 3.00223714 2.81431767 5.64205817 2.81431767 8.45637584 5.62863535 11.2729306 5.62863535 8.45637584 5.62863535 5.80313199 13.950783 14.0872483 13.950783 11.2729306 13.950783 11.1006711 13.950783 8.45637584 13.950783 5.64205817"></polygon>
                </g>
            </g>
        </g>
    </g>
</svg>