<?xml version="1.0" encoding="UTF-8"?>
<svg width="33px" height="30px" viewBox="0 0 33 30" version="1.1" xmlns="http://www.w3.org/2000/svg" xmlns:xlink="http://www.w3.org/1999/xlink">
    <!-- Generator: Sketch 52.5 (67469) - http://www.bohemiancoding.com/sketch -->
    <title>Grin29</title>
    <desc>Created with Sketch.</desc>
    <defs>
        <polygon id="path-1" points="0 0 28.5 0 28.5 29.6414848 0 29.6414848"></polygon>
    </defs>
    <g id="矿池算力页面" stroke="none" stroke-width="1" fill="none" fill-rule="evenodd">
        <g id="sparkpool.com-首页" transform="translate(-466.000000, -1134.000000)">
            <g id="Grin29" transform="translate(463.000000, 1131.000000)">
                <g id="分组">
                    <rect id="矩形-copy-2" x="0" y="0" width="36" height="36"></rect>
                    <g transform="translate(3.750000, 3.000000)">
                        <g id="Fill-1-Clipped">
                            <g>
                                <mask id="mask-2" fill="white">
                                    <use xlink:href="#path-1"></use>
                                </mask>
                                <g id="path-1"></g>
                                <path d="M14.25,28.0509197 C7.2246075,28.0509197 1.52931,22.1275016 1.52931,14.8207128 C1.52931,7.51392397 7.2246075,1.59065418 14.25,1.59065418 C21.2753925,1.59065418 26.97069,7.51392397 26.97069,14.8207128 C26.97069,22.1275016 21.2753925,28.0509197 14.25,28.0509197 M14.25,-5.92830882e-05 C6.3798675,-5.92830882e-05 0,6.63549678 0,14.8207128 C0,23.0060771 6.3798675,29.6414848 14.25,29.6414848 C22.1201325,29.6414848 28.5,23.0060771 28.5,14.8207128 C28.5,6.63549678 22.1201325,-5.92830882e-05 14.25,-5.92830882e-05" id="Fill-1" fill="#000000" fill-rule="nonzero" mask="url(#mask-2)"></path>
                            </g>
                        </g>
                        <path d="M19.0147725,25.1969429 C12.54057,28.1822909 5.3530125,24.1747542 3.794775,17.1055424 C4.4341725,16.9121312 5.152515,17.0418129 5.6259,17.4204837 C6.1188075,17.8144199 6.387705,18.5489373 6.67755,19.123094 C7.27719,20.3105343 8.1679575,21.3116774 9.1665975,22.1543865 C13.627845,25.9190108 19.9566975,23.8353585 22.2974025,19.123094 C22.2974025,19.123094 21.5686575,19.0647002 21.0045,19.0194967 C20.83749,19.0061582 20.6834475,18.9210869 20.57928,18.7847358 C20.47497,18.6482364 20.430225,18.4730549 20.455305,18.3008376 C20.4731175,18.1791589 20.5494975,18.0755618 20.65737,18.0254676 C21.4270125,17.6752527 24.50658,16.3341212 24.8242125,17.1548955 C25.142985,17.9790786 24.59607,19.1158318 24.317625,19.743788 C23.24004,22.1745428 21.37101,24.1104319 19.0147725,25.1969429 M8.4204675,6.55255974 L9.61419,10.2771679 L9.7633875,10.2771679 C9.924555,9.55272862 10.455795,6.96161305 11.4009975,6.96161305 C11.9778375,6.96161305 12.3138525,8.13482535 12.4773,8.5699632 C13.1135625,10.2623472 13.6094625,12.1921599 13.1953575,14.0017762 C12.0724575,13.4305837 11.7298875,11.9110099 11.4047025,10.7426884 L11.255505,10.7426884 C11.1834,11.4906928 10.6488825,13.8437868 9.6291525,13.7035823 C8.82873,13.5933158 8.42289,11.8744026 8.2711275,11.2082089 L8.1220725,11.2082089 C7.92585,12.5903941 7.3155225,14.6063155 6.0330225,15.2433123 C5.18016,13.1408375 6.3205875,7.5953493 8.4204675,6.55255974 M15.284265,7.63892235 C16.48326,7.99743682 16.8222675,9.60697267 17.07492,10.7426884 L17.22426,10.7426884 C17.3717475,10.0799035 17.9910525,7.45647862 18.9931125,7.85723227 C19.7714475,8.16846855 20.0541675,9.56858685 20.3576925,10.2771679 C20.7267675,8.95100527 21.162675,6.81948184 22.59594,6.39738625 C23.0694675,8.46636607 22.44489,10.8345772 21.70047,12.7602401 C21.353625,13.6574896 21.0194625,14.645887 20.059155,14.9328171 L18.8654325,11.2082089 L18.716235,11.2082089 C18.611355,12.4500413 18.0591675,14.2143061 16.9257225,14.7776436 C15.86424,12.6793187 14.7292275,10.0636006 15.284265,7.63892235 M14.43069,1.77849264 C7.4052975,1.77849264 1.71,7.70191065 1.71,15.0086994 C1.71,22.3154883 7.4052975,28.238758 14.43069,28.238758 C21.4560825,28.238758 27.15138,22.3154883 27.15138,15.0086994 C27.15138,7.70191065 21.4560825,1.77849264 14.43069,1.77849264" id="Fill-3" fill="#FFF200" fill-rule="nonzero"></path>
                        <path d="M24.6434512,16.9670274 C24.3258187,16.1462531 21.2462513,17.4873846 20.4767512,17.8375995 C20.3687362,17.8876936 20.2924988,17.9912909 20.2746863,18.1128213 C20.2494638,18.2851868 20.2942088,18.4603683 20.3985188,18.5968677 C20.5026863,18.7332187 20.6567287,18.8182901 20.8237388,18.8316287 C21.3878963,18.8768321 22.1167838,18.9350777 22.1167838,18.9350777 C19.7760787,23.6474904 13.4472263,25.7311427 8.98583625,21.9663702 C7.98719625,21.1238093 7.09642875,20.1226662 6.49693125,18.9350777 C6.20694375,18.360921 5.93804625,17.6265518 5.44528125,17.2326156 C4.97175375,16.8537966 4.25341125,16.7241148 3.61401375,16.9176741 C5.17225125,23.9867377 12.3599512,27.9942746 18.8340112,25.0090748 C21.1903912,23.9225639 23.0594213,21.9866747 24.1368637,19.5559198 C24.4153088,18.9278156 24.9622237,17.7912105 24.6434512,16.9670274" id="Fill-5" fill="#000000"></path>
                        <path d="M7.94131125,11.0203408 L8.09050875,11.0203408 C8.24227125,11.6865345 8.64796875,13.4054476 9.44839125,13.5157142 C10.4681212,13.6559186 11.0027812,11.3026765 11.0748862,10.5546721 L11.2240837,10.5546721 C11.5491262,11.7231418 11.8918387,13.2427155 13.0147387,13.8139081 C13.4288437,12.0042918 12.9328012,10.0744791 12.2965387,8.3820951 C12.1330912,7.94695725 11.7972187,6.77374494 11.2203787,6.77374494 C10.2751762,6.77374494 9.74379375,9.36486053 9.58276875,10.0892999 L9.43342875,10.0892999 L8.23970625,6.36454343 C6.13996875,7.40748116 4.99939875,12.9529694 5.85226125,15.0554442 C7.13476125,14.4184474 7.74508875,12.402526 7.94131125,11.0203408" id="Fill-7" fill="#000000"></path>
                        <path d="M18.5355735,11.0203408 L18.684771,11.0203408 L19.8784935,14.744949 C20.838801,14.4578706 21.1729635,13.4694734 21.519666,12.572372 C22.2642285,10.6467091 22.888806,8.2784979 22.4152785,6.20951815 C20.9820135,6.63161375 20.5459635,8.76313717 20.177031,10.0892998 C19.873506,9.38071875 19.5906435,7.98060045 18.8123085,7.66936418 C17.810391,7.26861052 17.1909435,9.89203537 17.043456,10.5546721 L16.894116,10.5546721 C16.641606,9.41910457 16.3025985,7.80942053 15.1036035,7.45105423 C14.548566,9.87558435 15.683436,12.4914506 16.745061,14.5897755 C17.878506,14.026438 18.4306935,12.2621732 18.5355735,11.0203408" id="Fill-9" fill="#000000"></path>
                    </g>
                </g>
                <g id="29" transform="translate(19.500000, 24.000000)">
                    <rect id="矩形" fill="#FF8859" x="0" y="0" width="16.5" height="9" rx="2.16"></rect>
                    <path d="M5.55661765,1.125 C6.15716912,1.125 6.64852941,1.29784367 7.0397978,1.643531 C7.42196691,1.98921833 7.6221507,2.45316712 7.6221507,3.01718329 C7.6221507,3.58119946 7.40376838,4.09063343 6.98520221,4.54548517 C6.75772059,4.78200808 6.31185661,5.13679245 5.63851103,5.59164421 C4.81047794,6.14656334 4.33731618,6.64690027 4.21902574,7.08355795 L7.63125,7.08355795 L7.63125,7.74764153 L3.3,7.74764153 C3.3,7.15633424 3.50928309,6.61960916 3.9460478,6.13746631 C4.2008272,5.84636119 4.66488971,5.45518868 5.35643382,4.98214286 C5.86599265,4.61826145 6.20266544,4.35444744 6.37555147,4.17250674 C6.703125,3.81772237 6.87601103,3.42654986 6.87601103,3.00808625 C6.87601103,2.60781671 6.75772059,2.30761456 6.52113971,2.08928572 C6.28455882,1.87095687 5.94788603,1.76179245 5.52931985,1.76179245 C5.08345589,1.76179245 4.73768382,1.90734501 4.50110294,2.21664421 C4.24632353,2.50774933 4.10983456,2.94440701 4.10073529,3.51752021 L3.35459559,3.51752021 C3.35459559,2.78975741 3.56387868,2.20754717 3.96424632,1.77998652 C4.36461397,1.34332884 4.90147059,1.125 5.55661765,1.125 Z M10.8523897,1.125 C11.6349265,1.125 12.2263787,1.41610512 12.6267464,1.99831537 C13.0089155,2.54413747 13.2,3.32648248 13.2,4.32715633 C13.2,5.36421833 12.9907169,6.20114555 12.5903493,6.85613207 C12.1535846,7.5293127 11.5712316,7.875 10.8432905,7.875 C9.6330882,7.875 8.9415441,7.29278976 8.76865808,6.13746631 L9.50569853,6.13746631 C9.6421875,6.87432614 10.0880515,7.24730459 10.8523897,7.24730459 C11.3528493,7.24730459 11.7532169,6.9925876 12.0534926,6.49225067 C12.3355699,6.01010782 12.4811581,5.40060647 12.4811581,4.67284367 C12.4811581,4.62735849 12.4720589,4.54548517 12.4720589,4.43632075 L12.4356618,4.43632075 C12.271875,4.76381402 12.0352941,5.02762803 11.7350184,5.21866576 C11.4438419,5.40060647 11.1071691,5.50067386 10.725,5.50067386 C10.0971507,5.50067386 9.59669115,5.29144204 9.21452205,4.88207547 C8.84145218,4.49090297 8.65946693,3.981469 8.65946693,3.35377358 C8.65946693,2.7078841 8.8596507,2.18025607 9.27821693,1.76179245 C9.68768385,1.3342318 10.2154412,1.125 10.8523897,1.125 Z M10.8705882,1.75269542 C10.4247243,1.75269542 10.069853,1.89824798 9.796875,2.19845014 C9.52389705,2.49865229 9.39650738,2.88072776 9.39650738,3.35377358 C9.39650738,3.80862534 9.52389705,4.18160377 9.796875,4.45451483 C10.0607537,4.73652291 10.415625,4.88207547 10.8705882,4.88207547 C11.2891544,4.88207547 11.6440257,4.73652291 11.9352022,4.44541779 C12.2081801,4.15431267 12.3537684,3.78133424 12.3537684,3.33557951 C12.3537684,2.88072776 12.2172794,2.50774933 11.9534007,2.21664421 C11.6804228,1.90734501 11.3164522,1.75269542 10.8705882,1.75269542 Z" id="形状" fill="#FFFFFF" fill-rule="nonzero"></path>
                </g>
            </g>
        </g>
    </g>
</svg>