<?xml version="1.0" encoding="UTF-8"?>
<svg width="33px" height="30px" viewBox="0 0 33 30" version="1.1" xmlns="http://www.w3.org/2000/svg" xmlns:xlink="http://www.w3.org/1999/xlink">
    <!-- Generator: Sketch 52.5 (67469) - http://www.bohemiancoding.com/sketch -->
    <title>Grin</title>
    <desc>Created with Sketch.</desc>
    <defs>
        <polygon id="path-1" points="0 0 28.5 0 28.5 29.6414849 0 29.6414849"></polygon>
    </defs>
    <g id="矿池算力页面" stroke="none" stroke-width="1" fill="none" fill-rule="evenodd">
        <g id="多链-矿机离线在线选择" transform="translate(-945.000000, -151.000000)">
            <g id="Grin" transform="translate(942.000000, 148.000000)">
                <rect id="矩形-copy-2" x="0" y="0" width="36" height="36"></rect>
                <g id="分组-16" transform="translate(3.750000, 3.000000)">
                    <g id="分组">
                        <g id="Fill-1-Clipped">
                            <g>
                                <mask id="mask-2" fill="white">
                                    <use xlink:href="#path-1"></use>
                                </mask>
                                <g id="path-1"></g>
                                <path d="M14.25,28.0509197 C7.2246075,28.0509197 1.52931,22.1275016 1.52931,14.8207128 C1.52931,7.51392395 7.2246075,1.59065418 14.25,1.59065418 C21.2753925,1.59065418 26.97069,7.51392395 26.97069,14.8207128 C26.97069,22.1275016 21.2753925,28.0509197 14.25,28.0509197 M14.25,-5.92830882e-05 C6.3798675,-5.92830882e-05 0,6.63549678 0,14.8207128 C0,23.0060771 6.3798675,29.6414849 14.25,29.6414849 C22.1201325,29.6414849 28.5,23.0060771 28.5,14.8207128 C28.5,6.63549678 22.1201325,-5.92830882e-05 14.25,-5.92830882e-05" id="Fill-1" fill="#000000" fill-rule="nonzero" mask="url(#mask-2)"></path>
                            </g>
                        </g>
                        <path d="M19.0147725,25.1969428 C12.54057,28.1822908 5.3530125,24.1747542 3.794775,17.1055423 C4.4341725,16.9121311 5.152515,17.0418129 5.6259,17.4204837 C6.1188075,17.8144198 6.387705,18.5489373 6.67755,19.1230939 C7.27719,20.3105343 8.1679575,21.3116773 9.1665975,22.1543865 C13.627845,25.9190107 19.9566975,23.8353585 22.2974025,19.1230939 C22.2974025,19.1230939 21.5686575,19.0647001 21.0045,19.0194967 C20.83749,19.0061581 20.6834475,18.9210868 20.57928,18.7847358 C20.47497,18.6482364 20.430225,18.4730548 20.455305,18.3008376 C20.4731175,18.1791589 20.5494975,18.0755617 20.65737,18.0254676 C21.4270125,17.6752527 24.50658,16.3341211 24.8242125,17.1548955 C25.142985,17.9790786 24.59607,19.1158318 24.317625,19.7437879 C23.24004,22.1745427 21.37101,24.1104319 19.0147725,25.1969428 M8.4204675,6.55255974 L9.61419,10.277168 L9.7633875,10.277168 C9.924555,9.55272862 10.455795,6.96161305 11.4009975,6.96161305 C11.9778375,6.96161305 12.3138525,8.13482537 12.4773,8.56996323 C13.1135625,10.2623472 13.6094625,12.1921599 13.1953575,14.0017762 C12.0724575,13.4305836 11.7298875,11.9110099 11.4047025,10.7426884 L11.255505,10.7426884 C11.1834,11.4906928 10.6488825,13.8437868 9.6291525,13.7035823 C8.82873,13.5933157 8.42289,11.8744026 8.2711275,11.2082089 L8.1220725,11.2082089 C7.92585,12.5903941 7.3155225,14.6063155 6.0330225,15.2433123 C5.18016,13.1408375 6.3205875,7.59534927 8.4204675,6.55255974 M15.284265,7.63892233 C16.48326,7.99743681 16.8222675,9.60697266 17.07492,10.7426884 L17.22426,10.7426884 C17.3717475,10.0799035 17.9910525,7.45647862 18.9931125,7.8572323 C19.7714475,8.16846852 20.0541675,9.56858685 20.3576925,10.277168 C20.7267675,8.95100529 21.162675,6.81948184 22.59594,6.39738625 C23.0694675,8.46636605 22.44489,10.8345772 21.70047,12.7602401 C21.353625,13.6574897 21.0194625,14.6458869 20.059155,14.9328171 L18.8654325,11.2082089 L18.716235,11.2082089 C18.611355,12.4500414 18.0591675,14.2143061 16.9257225,14.7776436 C15.86424,12.6793187 14.7292275,10.0636006 15.284265,7.63892233 M14.43069,1.77849264 C7.4052975,1.77849264 1.71,7.70191062 1.71,15.0086994 C1.71,22.3154883 7.4052975,28.238758 14.43069,28.238758 C21.4560825,28.238758 27.15138,22.3154883 27.15138,15.0086994 C27.15138,7.70191062 21.4560825,1.77849264 14.43069,1.77849264" id="Fill-3" fill="#FFF200" fill-rule="nonzero"></path>
                        <path d="M24.6434512,16.9670274 C24.3258187,16.1462531 21.2462513,17.4873846 20.4767512,17.8375995 C20.3687362,17.8876937 20.2924988,17.9912909 20.2746863,18.1128213 C20.2494638,18.2851868 20.2942088,18.4603683 20.3985188,18.5968677 C20.5026863,18.7332188 20.6567287,18.8182901 20.8237388,18.8316287 C21.3878963,18.8768321 22.1167838,18.9350777 22.1167838,18.9350777 C19.7760787,23.6474904 13.4472263,25.7311427 8.98583625,21.9663702 C7.98719625,21.1238093 7.09642875,20.1226662 6.49693125,18.9350777 C6.20694375,18.360921 5.93804625,17.6265518 5.44528125,17.2326156 C4.97175375,16.8537966 4.25341125,16.7241149 3.61401375,16.9176741 C5.17225125,23.9867378 12.3599512,27.9942746 18.8340112,25.0090748 C21.1903912,23.9225639 23.0594213,21.9866747 24.1368637,19.5559199 C24.4153088,18.9278156 24.9622237,17.7912105 24.6434512,16.9670274" id="Fill-5" fill="#000000"></path>
                        <path d="M7.94131125,11.0203408 L8.09050875,11.0203408 C8.24227125,11.6865345 8.64796875,13.4054476 9.44839125,13.5157142 C10.4681212,13.6559187 11.0027812,11.3026765 11.0748862,10.5546721 L11.2240837,10.5546721 C11.5491262,11.7231418 11.8918387,13.2427155 13.0147387,13.8139081 C13.4288437,12.0042918 12.9328012,10.0744791 12.2965387,8.38209513 C12.1330912,7.94695727 11.7972187,6.77374494 11.2203787,6.77374494 C10.2751762,6.77374494 9.74379375,9.36486053 9.58276875,10.0892999 L9.43342875,10.0892999 L8.23970625,6.36454343 C6.13996875,7.40748116 4.99939875,12.9529694 5.85226125,15.0554442 C7.13476125,14.4184474 7.74508875,12.402526 7.94131125,11.0203408" id="Fill-7" fill="#000000"></path>
                        <path d="M18.5355735,11.0203408 L18.684771,11.0203408 L19.8784935,14.744949 C20.838801,14.4578706 21.1729635,13.4694734 21.519666,12.572372 C22.2642285,10.6467091 22.888806,8.27849793 22.4152785,6.20951815 C20.9820135,6.63161375 20.5459635,8.76313718 20.177031,10.0892999 C19.873506,9.38071875 19.5906435,7.98060042 18.8123085,7.6693642 C17.810391,7.26861052 17.1909435,9.89203539 17.043456,10.5546721 L16.894116,10.5546721 C16.641606,9.41910454 16.3025985,7.8094205 15.1036035,7.45105424 C14.548566,9.87558433 15.683436,12.4914506 16.745061,14.5897755 C17.878506,14.026438 18.4306935,12.2621733 18.5355735,11.0203408" id="Fill-9" fill="#000000"></path>
                    </g>
                </g>
                <g id="31" transform="translate(19.500000, 24.000000)">
                    <rect id="矩形-copy-13" fill="#FF8859" fill-rule="nonzero" x="0" y="0" width="16.5" height="9" rx="2.16"></rect>
                    <path d="M6.73831554,1.125 C7.3594306,1.125 7.87093713,1.2796496 8.25456702,1.59804582 C8.62906287,1.91644205 8.82087782,2.3440027 8.82087782,2.8898248 C8.82087782,3.6175876 8.46465006,4.10882749 7.75219454,4.3453504 C8.13582444,4.46361186 8.42811388,4.64555256 8.62906287,4.90026954 C8.84827995,5.15498652 8.95788849,5.47338275 8.95788849,5.85545822 C8.95788849,6.4467655 8.74780546,6.92890836 8.33677343,7.30188679 C7.91660735,7.68396226 7.36856465,7.875 6.69264531,7.875 C6.07153025,7.875 5.56915777,7.71125337 5.17639383,7.40195418 C4.71055753,7.01987871 4.45480427,6.46495957 4.4,5.73719677 L5.15812574,5.73719677 C5.17639383,6.24663073 5.34994069,6.63780323 5.66963227,6.90161725 C5.94365362,7.11994609 6.28161329,7.23820755 6.69264531,7.23820755 C7.15848161,7.23820755 7.53297746,7.10175202 7.81613286,6.83793801 C8.07188612,6.58322102 8.2088968,6.2648248 8.2088968,5.88274933 C8.2088968,5.49157682 8.08102017,5.19137466 7.8252669,4.97304582 C7.56951364,4.75471698 7.22241993,4.6546496 6.76571767,4.6546496 L6.23594306,4.6546496 L6.23594306,4.07243935 L6.73831554,4.07243935 C7.1767497,4.07243935 7.50557533,3.97237197 7.73392645,3.78133423 C7.96227758,3.58119946 8.08102017,3.29919137 8.08102017,2.93530997 C8.08102017,2.57142857 7.96227758,2.28942049 7.7430605,2.08928571 C7.50557533,1.87095687 7.16761566,1.77088949 6.74744958,1.77088949 C6.30901542,1.77088949 5.97105575,1.88005391 5.72443654,2.11657682 C5.46868327,2.35309973 5.32253855,2.68969003 5.27686833,3.12634771 L4.53701068,3.12634771 C4.59181495,2.49865229 4.82930012,2.0074124 5.2311981,1.65262803 C5.614828,1.29784367 6.11720047,1.125 6.73831554,1.125 Z M11.5154211,1.25235849 L12.1,1.25235849 L12.1,7.74764151 L11.3510083,7.74764151 L11.3510083,2.16206199 C10.9399763,2.58052561 10.4284698,2.87163073 9.81648873,3.05357143 L9.81648873,2.30761456 C10.1087782,2.22574124 10.4193357,2.09838275 10.7298932,1.91644205 C11.0404508,1.71630728 11.296204,1.49797844 11.5154211,1.25235849 Z" fill="#FFFFFF"></path>
                </g>
            </g>
        </g>
    </g>
</svg>