<?xml version="1.0" encoding="UTF-8"?>
<svg width="20px" height="20px" viewBox="0 0 20 20" version="1.1" xmlns="http://www.w3.org/2000/svg" xmlns:xlink="http://www.w3.org/1999/xlink">
    <!-- Generator: Sketch 57.1 (83088) - https://sketch.com -->
    <title>矩形</title>
    <desc>Created with Sketch.</desc>
    <g id="页面-1" stroke="none" stroke-width="1" fill="none" fill-rule="evenodd">
        <g id="r" transform="translate(-33.000000, -37.000000)" stroke="#717171">
            <g id="staking" transform="translate(33.000000, 37.000000)">
                <path d="M16.242567,10.1167796 L17.3901572,10.8046424 C17.9230766,11.124073 18.0961434,11.8150392 17.7767128,12.3479586 C17.6816036,12.5066333 17.5488319,12.639405 17.3901572,12.7345142 L10.5783803,16.8174769 C10.2223248,17.0308957 9.77767524,17.0308957 9.42161975,16.8174769 L2.6098428,12.7345142 C2.07692342,12.4150836 1.90385656,11.7241174 2.22328716,11.1911981 C2.31839641,11.0325233 2.45116807,10.8997517 2.6098428,10.8046424 L3.73049493,10.1329262 L3.73049493,10.1329262" id="路径"></path>
                <path d="M10.5141158,3.30815976 L17.5690286,7.53685752 C18.0427347,7.82079582 18.1965719,8.43498798 17.9126336,8.90869409 C17.8280921,9.0497383 17.7100728,9.16775755 17.5690286,9.25229911 L10.5141158,13.4809969 C10.197622,13.6707025 9.80237799,13.6707025 9.48588422,13.4809969 L2.43097138,9.25229911 C1.95726526,8.96836081 1.80342806,8.35416865 2.08736636,7.88046253 C2.17190792,7.73941833 2.28992718,7.62139907 2.43097138,7.53685752 L9.48588422,3.30815976 C9.80237799,3.11845416 10.197622,3.11845416 10.5141158,3.30815976 Z" id="矩形备份"></path>
            </g>
        </g>
    </g>
</svg>