<?xml version="1.0" standalone="no"?><!DOCTYPE svg PUBLIC "-//W3C//DTD SVG 1.1//EN" "http://www.w3.org/Graphics/SVG/1.1/DTD/svg11.dtd"><svg t="1539589361100" class="icon" style="" viewBox="0 0 1024 1024" version="1.1" xmlns="http://www.w3.org/2000/svg" p-id="20508" xmlns:xlink="http://www.w3.org/1999/xlink" width="200" height="200"><defs><style type="text/css"></style></defs><path d="M409.958 535.36399999C331.838 573.272 278 653.354 278 746h468c0-92.646-53.856-172.728-131.958-210.63599999a148.914 148.914 0 1 0-204.084-2e-8zM62 512C62 263.474 263.41999999 62 512 62c248.526 0 450 201.42000001 450 450 0 248.526-201.42000001 450-450 450C263.474 962 62 760.58000001 62 512z m652.086 234H309.914c0-111.6 90.46799999-202.086 202.086-202.086 111.6 0 202.086 90.46799999 202.086 202.086zM512 543.914a117 117 0 1 0 0-234 117 117 0 0 0 0 234z" fill="#CCCCCC" p-id="20509"></path></svg>