<svg xmlns="http://www.w3.org/2000/svg" width="32" height="32" viewBox="0 0 32 32">
    <defs>
        <filter id="a" width="149.7%" height="163.9%" x="-24.9%" y="-31.9%" filterUnits="objectBoundingBox">
            <feOffset dy="16" in="SourceAlpha" result="shadowOffsetOuter1"/>
            <feGaussianBlur in="shadowOffsetOuter1" result="shadowBlurOuter1" stdDeviation="16"/>
            <feColorMatrix in="shadowBlurOuter1" result="shadowMatrixOuter1" values="0 0 0 0 0 0 0 0 0 0 0 0 0 0 0 0 0 0 0.1 0"/>
            <feMerge>
                <feMergeNode in="shadowMatrixOuter1"/>
                <feMergeNode in="SourceGraphic"/>
            </feMerge>
        </filter>
    </defs>
    <g fill="#F86E21" fill-rule="nonzero" filter="url(#a)" transform="translate(-155 -240)">
        <path fill-opacity=".3" d="M171 272c8.837 0 16-7.163 16-16s-7.163-16-16-16-16 7.163-16 16 7.163 16 16 16zm0-1c-8.284 0-15-6.716-15-15 0-8.284 6.716-15 15-15 8.284 0 15 6.716 15 15 0 8.284-6.716 15-15 15z"/>
        <path d="M163.51 251.213l7-3.937a1 1 0 0 1 .98 0l7 3.937a1 1 0 0 1 .51.872v7.83a1 1 0 0 1-.51.872l-7 3.937a1 1 0 0 1-.98 0l-7-3.937a1 1 0 0 1-.51-.872v-7.83a1 1 0 0 1 .51-.872zm.49.872v7.83l7 3.938 7-3.938v-7.83l-7-3.938-7 3.938z"/>
        <g fill-opacity=".3">
            <path d="M169.5 259.5h3a.5.5 0 0 0 0-1h-3a.5.5 0 0 0 0 1zM169.5 256.5h3a.5.5 0 0 0 0-1h-3a.5.5 0 0 0 0 1zM169.5 253.5h3a.5.5 0 0 0 0-1h-3a.5.5 0 1 0 0 1z"/>
        </g>
    </g>
</svg>
