<svg xmlns="http://www.w3.org/2000/svg" xmlns:xlink="http://www.w3.org/1999/xlink" width="108" height="32" viewBox="0 0 108 32">
    <defs>
        <path id="a" d="M0 .16h11.994V22.5H0z"/>
    </defs>
    <g fill="none" fill-rule="evenodd">
        <path fill="#FF7828" d="M8.92 0C8.47 7.15-5.922 12.073 2.8 22.5 3.19 15.104 18.34 9.102 8.92 0"/>
        <g transform="translate(6.5 9.5)">
            <mask id="b" fill="#fff">
                <use xlink:href="#a"/>
            </mask>
            <path fill="#FF7828" d="M8.915.16C8.465 7.257-5.918 12.146 2.8 22.5 3.187 15.157 18.33 9.197 8.915.16" mask="url(#b)"/>
        </g>
        <g fill="#FF7828">
            <path d="M34 17.11c0 .803-.304 1.485-.912 2.047-.609.562-1.584.844-2.925.843-.954 0-1.814-.084-2.583-.25-.184-.037-.276-.13-.276-.277v-.996c0-.073.027-.136.08-.186a.275.275 0 0 1 .197-.076h.03c.777.092 1.638.138 2.581.139.622 0 1.06-.101 1.313-.304.253-.203.38-.516.38-.94a.938.938 0 0 0-.255-.672c-.17-.18-.498-.408-.985-.685L28.72 14.66c-.641-.36-1.089-.742-1.341-1.148A2.562 2.562 0 0 1 27 12.127c0-1.752 1.217-2.628 3.648-2.627 1.118 0 2.052.084 2.8.25.176.037.263.125.263.263v1.024c0 .166-.083.249-.248.249h-.03a33.825 33.825 0 0 0-2.873-.14c-1.021 0-1.532.327-1.532.982 0 .23.082.431.248.602.165.17.48.38.948.63l1.75.927c.758.397 1.285.82 1.582 1.266.296.448.444.967.444 1.557M41.129 12.857v-.126c0-.578-.165-.993-.495-1.245-.33-.252-.843-.378-1.539-.378-.48 0-.882.018-1.207.056l-.001 3.327c.434.028.836.043 1.207.043.714 0 1.232-.137 1.553-.412.32-.275.481-.697.482-1.265zm1.87 0c0 .597-.103 1.114-.312 1.552a2.431 2.431 0 0 1-.868 1.02c-.37.243-.78.42-1.227.531a6.186 6.186 0 0 1-1.499.168 10.745 10.745 0 0 1-.854-.036 5.261 5.261 0 0 0-.353-.02v3.648c-.001.075-.026.14-.076.196a.236.236 0 0 1-.183.084h-1.356a.256.256 0 0 1-.19-.085.272.272 0 0 1-.081-.195V10.1c0-.233.148-.373.438-.42.768-.12 1.654-.18 2.658-.18.551 0 1.05.054 1.498.161.448.108.857.28 1.227.518.37.238.66.574.868 1.007.207.434.311.95.311 1.545v.126zM46.521 15.51l1.008-4.15c.038-.15.112-.225.224-.225s.187.075.224.224l1.005 4.153-2.46-.001zm5.465 4.224v-.041l-2.29-8.766c-.241-.951-.889-1.427-1.942-1.427-1.054 0-1.701.475-1.944 1.425l-2.296 8.764v.042l-.014.028c0 .159.084.238.252.238h1.481c.14 0 .229-.078.266-.237l.644-2.656 3.216.001.642 2.657c.037.158.126.237.265.237l1.482.001c.168 0 .252-.079.252-.237l-.014-.029zM59.253 12.786v-.126c0-.522-.171-.902-.514-1.14-.342-.237-.866-.356-1.569-.356-.49 0-.903.018-1.236.055l-.002 3.145c.445.028.857.043 1.237.043.73 0 1.261-.12 1.59-.363.329-.242.493-.662.494-1.258m2.247 7.046c0 .112-.056.168-.167.168H59.64c-.093 0-.186-.094-.278-.28l-1.999-3.734h-.194a12.218 12.218 0 0 1-.875-.035 5.602 5.602 0 0 0-.361-.021l-.001 3.788c0 .075-.026.14-.077.196a.243.243 0 0 1-.188.084h-1.389a.265.265 0 0 1-.194-.085.267.267 0 0 1-.083-.195l.004-9.618c0-.233.148-.373.444-.42a18.14 18.14 0 0 1 2.723-.18c.564 0 1.076.054 1.534.161.459.108.877.28 1.257.518.38.238.676.566.889.986.212.42.319.918.318 1.496v.126c0 1.407-.626 2.357-1.876 2.85l2.18 4.083a.2.2 0 0 1 .027.112M70.996 19.873c0 .085-.07.127-.208.127h-1.86c-.148 0-.255-.053-.32-.156l-3.177-4.826-.002 4.697a.275.275 0 0 1-.083.198.264.264 0 0 1-.194.085h-1.375a.264.264 0 0 1-.194-.086.274.274 0 0 1-.083-.198l.004-9.945a.25.25 0 0 1 .083-.19.275.275 0 0 1 .194-.079h1.375c.073 0 .139.027.194.079a.25.25 0 0 1 .083.19l-.002 4.5 3.403-4.654c.056-.075.162-.113.32-.113h1.582c.176 0 .264.057.264.17 0 .067-.033.142-.097.227l-3.556 4.681 3.58 5.123c.046.076.07.132.07.17M78.629 12.857v-.126c0-.578-.165-.993-.495-1.245-.33-.252-.843-.378-1.539-.378-.48 0-.882.018-1.207.055l-.001 3.328c.434.028.836.042 1.207.043.714 0 1.231-.137 1.553-.412.32-.275.481-.697.482-1.265zm1.87 0c0 .597-.103 1.114-.312 1.552a2.431 2.431 0 0 1-.868 1.02c-.37.243-.78.42-1.227.531a6.184 6.184 0 0 1-1.499.168 11.208 11.208 0 0 1-.854-.036 5.3 5.3 0 0 0-.353-.02v3.648c-.001.075-.026.14-.076.196a.236.236 0 0 1-.183.084h-1.356a.257.257 0 0 1-.19-.084.272.272 0 0 1-.081-.196l.003-9.62c0-.233.145-.373.435-.42.768-.12 1.654-.18 2.658-.18.55 0 1.05.054 1.498.161.448.108.856.28 1.227.518.37.238.66.574.868 1.007.207.434.311.95.311 1.546v.125zM88.535 15.685v-1.868c0-.904-.165-1.57-.497-2-.332-.428-.844-.643-1.537-.643-.692 0-1.205.214-1.537.642-.332.43-.498 1.096-.499 2v1.867c0 .904.165 1.57.497 2 .332.428.844.643 1.537.643.692 0 1.204-.214 1.536-.642.333-.43.5-1.096.5-2zm1.964 0c0 1.458-.361 2.541-1.082 3.25-.72.71-1.694 1.066-2.919 1.065-1.226 0-2.199-.356-2.919-1.066-.72-.71-1.08-1.794-1.079-3.252v-1.867c.001-1.457.362-2.54 1.082-3.25.721-.71 1.694-1.066 2.92-1.065 1.226 0 2.198.356 2.919 1.066.72.71 1.08 1.795 1.079 3.252v1.867zM98.035 15.684v-1.867c0-.904-.165-1.57-.497-2-.332-.428-.844-.643-1.536-.643-.693 0-1.206.214-1.538.643-.332.428-.498 1.095-.499 1.999v1.867c0 .904.165 1.57.497 2 .332.428.844.643 1.537.643.692 0 1.204-.214 1.536-.643.333-.428.5-1.095.5-1.999zm1.964.001c0 1.458-.361 2.541-1.081 3.25-.721.71-1.694 1.066-2.92 1.065-1.226 0-2.199-.356-2.919-1.066-.72-.71-1.08-1.794-1.079-3.252v-1.867c.001-1.457.362-2.54 1.083-3.25.72-.71 1.693-1.065 2.92-1.065 1.225 0 2.197.356 2.918 1.066.72.711 1.08 1.795 1.079 3.252v1.867zM108 19.511c0 .094-.02.161-.057.203-.039.042-.115.073-.228.09-.57.131-1.378.196-2.424.196a6.24 6.24 0 0 1-1.304-.12 3.163 3.163 0 0 1-1.026-.42 1.844 1.844 0 0 1-.72-.88c-.16-.387-.241-.869-.241-1.447l.003-7.354c0-.074.028-.14.085-.195a.275.275 0 0 1 .2-.084h1.411c.076 0 .143.029.2.085a.265.265 0 0 1 .085.195l-.003 7.354c0 .456.08.77.242.943.161.173.451.259.87.26h2.622c.076 0 .143.028.2.084a.266.266 0 0 1 .085.196v.894z"/>
        </g>
    </g>
</svg>
